<svg xmlns="http://www.w3.org/2000/svg" version="1.1" xmlns:xlink="http://www.w3.org/1999/xlink" viewBox="0 0 200 200"><rect width="200" height="200" fill="url('#gradient')"></rect><defs><linearGradient id="gradient" gradientTransform="rotate(45 0.5 0.5)"><stop offset="0%" stop-color="#ea8a17"></stop><stop offset="100%" stop-color="#1bc364"></stop></linearGradient></defs><g><g fill="#fffffe" transform="matrix(1.6767251461988304,0,0,1.6767251461988304,14.200100266110823,108.595169499269)" stroke="#10100d" stroke-width="0.6"><path d="M9.89-8.57L9.89-6.03L4.50-6.03L4.50-2.64L10.87-2.64L10.87 0L1.07 0L1.07-14.22L10.89-14.22L10.89-11.57L4.50-11.57L4.50-8.57L9.89-8.57ZM11.54-5.24L11.54-5.36Q11.54-6.96 12.07-8.19Q12.60-9.42 13.58-10.09Q14.57-10.76 15.88-10.76L15.88-10.76Q17.53-10.76 18.46-9.65L18.46-9.65L18.57-10.57L21.56-10.57L21.56-0.40Q21.56 1.00 20.91 2.03Q20.26 3.06 19.03 3.61Q17.80 4.16 16.18 4.16L16.18 4.16Q15.02 4.16 13.93 3.72Q12.84 3.28 12.27 2.58L12.27 2.58L13.64 0.64Q14.56 1.73 16.06 1.73L16.06 1.73Q18.25 1.73 18.25-0.52L18.25-0.52L18.25-0.85Q17.30 0.20 15.86 0.20L15.86 0.20Q13.93 0.20 12.73-1.28Q11.54-2.76 11.54-5.24L11.54-5.24ZM14.84-5.16L14.84-5.16Q14.84-3.86 15.33-3.10Q15.82-2.34 16.70-2.34L16.70-2.34Q17.76-2.34 18.25-3.06L18.25-3.06L18.25-7.50Q17.77-8.22 16.72-8.22L16.72-8.22Q15.84-8.22 15.34-7.44Q14.84-6.65 14.84-5.16ZM29.88-10.64L29.82-7.59L28.74-7.67Q27.19-7.67 26.75-6.69L26.75-6.69L26.75 0L23.46 0L23.46-10.57L26.54-10.57L26.65-9.21Q27.48-10.76 28.96-10.76L28.96-10.76Q29.49-10.76 29.88-10.64L29.88-10.64ZM39.96 0L36.67 0Q36.49-0.32 36.36-0.95L36.36-0.95Q35.45 0.20 33.82 0.20L33.82 0.20Q32.32 0.20 31.28-0.71Q30.23-1.61 30.23-2.98L30.23-2.98Q30.23-4.70 31.50-5.58Q32.77-6.46 35.20-6.46L35.20-6.46L36.21-6.46L36.21-7.01Q36.21-8.47 34.95-8.47L34.95-8.47Q33.78-8.47 33.78-7.31L33.78-7.31L30.49-7.31Q30.49-8.85 31.79-9.80Q33.10-10.76 35.12-10.76Q37.14-10.76 38.31-9.78Q39.48-8.79 39.51-7.07L39.51-7.07L39.51-2.39Q39.53-0.94 39.96-0.17L39.96-0.17L39.96 0ZM34.61-2.15L34.61-2.15Q35.22-2.15 35.63-2.41Q36.04-2.68 36.21-3.01L36.21-3.01L36.21-4.70L35.25-4.70Q33.54-4.70 33.54-3.15L33.54-3.15Q33.54-2.71 33.84-2.43Q34.14-2.15 34.61-2.15ZM41.36-10.57L44.44-10.57L44.55-9.33Q45.67-10.76 47.57-10.76L47.57-10.76Q49.57-10.76 50.27-9.17L50.27-9.17Q51.35-10.76 53.38-10.76L53.38-10.76Q56.59-10.76 56.68-6.88L56.68-6.88L56.68 0L53.38 0L53.38-6.67Q53.38-7.48 53.11-7.85Q52.83-8.22 52.11-8.22L52.11-8.22Q51.13-8.22 50.65-7.35L50.65-7.35L50.66-7.22L50.66 0L47.36 0L47.36-6.65Q47.36-7.48 47.10-7.85Q46.84-8.22 46.09-8.22L46.09-8.22Q45.15-8.22 44.65-7.35L44.65-7.35L44.65 0L41.36 0L41.36-10.57ZM66.04-3.78L66.04-3.78Q66.04-4.53 65.51-4.95Q64.98-5.37 63.64-5.82Q62.30-6.27 61.46-6.69L61.46-6.69Q58.69-8.05 58.69-10.42L58.69-10.42Q58.69-11.60 59.38-12.50Q60.07-13.41 61.33-13.91Q62.59-14.41 64.16-14.41L64.16-14.41Q65.69-14.41 66.91-13.87Q68.13-13.32 68.80-12.31Q69.47-11.30 69.47-10L69.47-10L66.05-10Q66.05-10.87 65.52-11.35Q64.99-11.83 64.08-11.83L64.08-11.83Q63.16-11.83 62.63-11.42Q62.10-11.02 62.10-10.39L62.10-10.39Q62.10-9.84 62.69-9.40Q63.27-8.96 64.75-8.48Q66.22-8.01 67.17-7.46L67.17-7.46Q69.47-6.13 69.47-3.80L69.47-3.80Q69.47-1.93 68.07-0.87Q66.66 0.20 64.21 0.20L64.21 0.20Q62.48 0.20 61.08-0.42Q59.68-1.04 58.97-2.12Q58.26-3.20 58.26-4.61L58.26-4.61L61.70-4.61Q61.70-3.47 62.29-2.92Q62.88-2.38 64.21-2.38L64.21-2.38Q65.06-2.38 65.55-2.75Q66.04-3.12 66.04-3.78ZM76.19 0.20L76.19 0.20Q73.76 0.20 72.26-1.25Q70.75-2.71 70.75-5.03L70.75-5.03L70.75-5.30Q70.75-6.92 71.35-8.16Q71.95-9.40 73.11-10.08Q74.26-10.76 75.84-10.76L75.84-10.76Q78.07-10.76 79.36-9.38Q80.64-8.00 80.64-5.53L80.64-5.53L80.64-4.25L74.10-4.25Q74.28-3.36 74.87-2.85Q75.47-2.34 76.42-2.34L76.42-2.34Q77.98-2.34 78.86-3.44L78.86-3.44L80.36-1.66Q79.75-0.81 78.62-0.31Q77.49 0.20 76.19 0.20ZM75.82-8.22L75.82-8.22Q74.38-8.22 74.10-6.31L74.10-6.31L77.42-6.31L77.42-6.56Q77.44-7.35 77.02-7.79Q76.60-8.22 75.82-8.22ZM84.41-10.57L86.05-3.92L87.72-10.57L91.19-10.57L87.74 0L84.38 0L80.94-10.57L84.41-10.57ZM101.27 0L97.98 0Q97.80-0.32 97.67-0.95L97.67-0.95Q96.76 0.20 95.13 0.20L95.13 0.20Q93.63 0.20 92.59-0.71Q91.54-1.61 91.54-2.98L91.54-2.98Q91.54-4.70 92.81-5.58Q94.08-6.46 96.50-6.46L96.50-6.46L97.52-6.46L97.52-7.01Q97.52-8.47 96.26-8.47L96.26-8.47Q95.09-8.47 95.09-7.31L95.09-7.31L91.80-7.31Q91.80-8.85 93.10-9.80Q94.40-10.76 96.43-10.76Q98.45-10.76 99.62-9.78Q100.79-8.79 100.82-7.07L100.82-7.07L100.82-2.39Q100.84-0.94 101.27-0.17L101.27-0.17L101.27 0ZM95.92-2.15L95.92-2.15Q96.53-2.15 96.94-2.41Q97.34-2.68 97.52-3.01L97.52-3.01L97.52-4.70L96.56-4.70Q94.84-4.70 94.84-3.15L94.84-3.15Q94.84-2.71 95.15-2.43Q95.45-2.15 95.92-2.15Z"></path></g></g></svg>